<?xml version="1.0" encoding="utf-8"?>
<!-- Generator: Adobe Illustrator 22.0.0, SVG Export Plug-In . SVG Version: 6.00 Build 0)  -->
<svg version="1.1" id="Layer_1" xmlns="http://www.w3.org/2000/svg" xmlns:xlink="http://www.w3.org/1999/xlink" x="0px" y="0px"
	 viewBox="0 0 100 100" style="enable-background:new 0 0 100 100;" xml:space="preserve">
<style type="text/css">
	.st0{fill:#1B1B1B;}
</style>
<path class="st0" d="M71.1,68.2H28.9c-1.3,0-2.3-1-2.3-2.3s1-2.3,2.3-2.3H71c1.3,0,2.3,1,2.3,2.3C73.4,67.1,72.4,68.2,71.1,68.2z"/>
<path class="st0" d="M71.1,54.1H28.9c-1.3,0-2.3-1-2.3-2.3s1-2.3,2.3-2.3H71c1.3,0,2.3,1,2.3,2.3C73.4,53.1,72.4,54.1,71.1,54.1z"/>
<path class="st0" d="M71.1,39H28.9c-1.3,0-2.3-1-2.3-2.3s1-2.3,2.3-2.3H71c1.3,0,2.3,1,2.3,2.3C73.4,37.9,72.4,39,71.1,39z"/>
</svg>
