<?xml version="1.0" encoding="utf-8"?>
<!-- Generator: Adobe Illustrator 22.0.2, SVG Export Plug-In . SVG Version: 6.00 Build 0)  -->
<!DOCTYPE svg PUBLIC "-//W3C//DTD SVG 1.1//EN" "http://www.w3.org/Graphics/SVG/1.1/DTD/svg11.dtd">
<svg version="1.1" id="Layer_1" xmlns="http://www.w3.org/2000/svg" xmlns:xlink="http://www.w3.org/1999/xlink" x="0px" y="0px"
	 viewBox="0 0 100 100" style="enable-background:new 0 0 100 100;" xml:space="preserve">
<style type="text/css">
	.st0{enable-background:new    ;}
	.st1{fill:#FBFBFB;}
</style>
<g id="Close_1_">
	<g id="_x35_3-interface_-_cross_cancel_2_" class="st0">
		<g id="_x35_3-interface_-_cross_cancel_3_">
			<g>
				<path class="st1" d="M54.7,49.9L97,7.6c1.3-1.3,1.3-3.5,0-4.8c-1.3-1.3-3.5-1.3-4.8,0L49.9,45.1L7.6,2.8c-1.3-1.3-3.5-1.3-4.8,0
					c-1.3,1.3-1.3,3.5,0,4.8l42.3,42.3L2.9,92.2c-1.3,1.3-1.3,3.5,0,4.8c1.3,1.3,3.5,1.3,4.8,0l42.3-42.3L92.2,97
					c1.3,1.3,3.5,1.3,4.8,0c1.3-1.3,1.3-3.5,0-4.8L54.7,49.9z"/>
			</g>
		</g>
	</g>
	<g id="Layer_1_2_">
	</g>
</g>
</svg>
