<!-- Generator: Adobe Illustrator 22.0.0, SVG Export Plug-In  -->
<svg version="1.1"
	 xmlns="http://www.w3.org/2000/svg" xmlns:xlink="http://www.w3.org/1999/xlink" xmlns:a="http://ns.adobe.com/AdobeSVGViewerExtensions/3.0/"
	 x="0px" y="0px" width="286.979px" height="125.55px" viewBox="0 0 286.979 125.55"
	 style="enable-background:new 0 0 286.979 125.55;" xml:space="preserve">
<style type="text/css">
	.st0{fill:#EA4242;}
</style>
<defs>
</defs>
<g>
	<path class="st0" d="M92.325,30.235c16.989,0,30.814,12.814,30.814,31.099c0,20.447-15.407,31.102-30.814,31.102
		c-14.543,0-30.667-9.935-30.667-31.246C61.658,43.337,75.192,30.235,92.325,30.235z M92.325,88.979
		c17.133,0,19.15-15.116,19.15-27.212c0-15.548-3.743-28.077-19.15-28.077c-15.119,0-19.006,12.24-19.006,27.933
		C73.319,73.286,75.048,88.979,92.325,88.979z M81.669,22.173L89.735,8.35C93.334,2.302,95.351,0,98.661,0
		c2.302,0,4.463,1.726,4.463,4.175c0,2.302-2.017,4.175-4.896,6.621L84.407,22.173H81.669z"/>
	<path class="st0" d="M181.612,30.811c5.04,0,7.054,3.455,7.054,5.904c0,2.446-1.585,4.607-4.175,4.607
		c-2.017,0-3.311-1.585-4.031-2.882c-1.009-1.582-1.585-2.734-3.167-2.734c-1.729,0-3.746,1.297-6.048,3.743
		c3.455,5.328,3.743,9.791,3.743,12.237c0,5.76-2.158,10.944-6.48,15.263c-3.743,3.743-9.644,6.192-20.011,6.624
		c-4.031,0.144-14.831,0.573-14.831,6.045c0,4.463,6.336,4.751,19.582,5.472c10.367,0.576,29.226,1.585,29.226,19.87
		c0,10.797-8.494,20.588-29.226,20.588c-18.43,0-29.085-7.774-29.085-17.997c0-4.031,2.161-9.647,8.639-9.647
		c1.009,0,1.441,0.144,2.161,0.432c-1.729,1.873-4.463,5.04-4.463,10.079c0,10.8,12.67,14.254,23.181,14.254
		c15.404,0,21.74-7.201,21.74-14.687c0-12.237-12.67-12.814-23.469-13.246c-11.373-0.432-24.046-1.585-24.046-11.517
		c0-7.057,6.048-10.367,12.817-11.52c-10.079-5.904-13.393-13.822-13.393-20.447c0-11.805,10.512-21.02,23.469-21.02
		c7.345,0,14.399,2.879,18.718,7.342C174.124,32.396,178.299,30.811,181.612,30.811z M150.942,70.405
		c13.678,0,13.102-16.989,13.102-18.718c0-3.167,0-17.997-13.246-17.997c-12.958,0-12.958,15.407-12.958,19.15
		C137.84,59.32,139.569,70.405,150.942,70.405z"/>
	<path class="st0" d="M216.221,30.235c16.992,0,30.811,12.814,30.811,31.099c0,20.447-15.404,31.102-30.811,31.102
		c-14.543,0-30.667-9.935-30.667-31.246C185.554,43.337,199.088,30.235,216.221,30.235z M216.221,88.979
		c17.133,0,19.15-15.116,19.15-27.212c0-15.548-3.743-28.077-19.15-28.077c-15.119,0-19.006,12.24-19.006,27.933
		C197.215,73.286,198.944,88.979,216.221,88.979z"/>
	<path class="st0" d="M249.688,72.998h2.734c1.441,6.91,6.769,16.269,16.989,16.269c9.215,0,10.656-7.63,10.656-10.223
		c0-7.486-6.333-10.509-13.966-14.251c-6.91-3.458-16.269-8.065-16.269-18.574c0-6.913,5.184-15.983,15.404-15.983
		c5.184,0,9.215,2.161,12.529,6.048c1.15-1.297,2.59-4.751,2.734-5.04h2.59v17.853h-2.59c-1.153-5.472-5.76-15.695-14.975-15.695
		c-6.189,0-9.359,4.607-9.359,8.783c0,6.624,6.913,9.791,13.534,12.817c7.633,3.455,17.28,7.918,17.28,20.444
		c0,9.791-7.201,16.992-17.424,16.992c-7.486,0-10.797-3.314-14.11-6.48c-1.438,1.585-2.734,4.607-3.023,5.904h-2.734V72.998z"/>
	<g>
		<path class="st0" d="M20.588,11.313h-1.006c-5.472,1.87-12.529,2.879-18.718,3.023v3.17c9.503,0,9.647,3.167,9.647,13.819v17.193
			h10.076V11.313z"/>
		<path class="st0" d="M30.811,86.751c-10.223,0-10.223-0.429-10.223-16.557V30.37H10.512v39.825
			c0,14.975-0.144,16.557-8.642,16.557H0v3.17h28.344v-3.17H30.811z"/>
		<path class="st0" d="M55.65,71.636c-5.76,15.116-9.503,15.116-20.588,15.116h-9.251v3.17h30.847l1.726-18.286H55.65z"/>
	</g>
	<rect x="24.344" y="86.751" class="st0" width="2.467" height="3.17"/>
</g>
</svg>